<svg xmlns="http://www.w3.org/2000/svg" width="101" height="73" viewBox="0 0 101 73"><g><g><path fill="#737373" d="M25.17.71c4.993-.079 10.175.047 14.268 1.074 2.034.51 3.822.538 5.668 1.171 1.349.464 2.79 1.08 4.006 1.758.583.324 1.029 1.01 1.76 1.171.34-.482.866-.65 1.367-.976 1.765-1.15 4-1.86 6.255-2.538.857-.258 1.548-.159 2.443-.39 1.802-.467 4.118-.531 6.059-.976h1.563c1.227-.266 2.88.11 4.3-.196.895-.192 2.623-.199 3.518 0 1.415.316 3.075-.078 4.3.196h1.563c1.007.23 2.207.125 3.323.39 2.571.61 5.278.924 7.524 1.757 2.68.994 5.384 2.012 6.84 4.197.851 1.276.685 3.521.685 5.662V54.395c0 5.693.137 11.65-.098 17.18-.557.444-.832 1.062-1.661 1.269-.62.154-1.335-.27-1.76-.39-1.17-.332-2.479-.327-3.615-.586-1.268-.29-2.635-.134-3.81-.391H88.2c-.852-.185-2 .027-3.03-.194-1.871-.405-4.363-.292-6.449-.294-2.19-.001-4.814-.435-6.84 0-.855.184-2.004-.06-2.737.098h-2.54c-1.134.243-2.721.152-3.812.39l-3.42.196c-1.987.446-4.186.313-6.254.78-.749.17-2.006.613-2.932.39-2.505-.6-5.533-.59-8.11-1.17-1.384-.312-2.911-.11-4.203-.39l-4.202-.196H32.11c-1.295-.277-3.768-.32-5.082-.098-.702.12-1.907-.157-2.638 0l-6.743.098c-.997.214-2.263-.055-3.42.196-2.644.57-5.727.373-8.21.975-1.764.428-3.943 1.017-4.885-.39-.616-.92-.293-3.358-.293-4.783V54.884 8.812c.33-.292.348-.883.586-1.268.335-.543.96-1.28 1.466-1.66 2.88-2.165 6.453-3.054 10.554-4.1 2.683-.684 5.696-.368 8.502-.976.926-.2 2.509.354 3.224-.097zm-1.66 4.198c-.392.23-1.128-.02-1.662.098-1.185.26-2.454.002-3.714.292-4.83 1.113-10.09 1.217-13.094 4.1v54.368c0 .828-.183 3.987 0 4.295.105.073.092.059.293.098.704-.461 1.89-.182 2.834-.391 1.544-.342 3.504-.243 5.081-.586h1.857c1.092-.234 2.537.077 3.811-.195 1.987-.423 4.573-.195 6.84-.195 8.297 0 15.615.676 22.77 1.562.416-1.267.098-4.03.098-5.564V50.492 9.593c-.079-.115-.076-.164-.098-.39-6.054-3.858-15.077-4.22-25.017-4.295zm29.316 63.446c1.798-.114 3.947-.391 5.668-.781 1.352-.307 2.851-.115 4.104-.39h1.661c1.472-.318 3.462-.063 4.984-.391h7.72c6.894 0 13.407.608 19.447 1.367V9.3c-.363-.233-.607-.671-.977-.878-1.018-.567-2.05-.737-3.225-1.172-4.677-1.73-10.68-2.34-17.004-2.342-4.448 0-8.88.032-12.508.976-.665.173-1.098.01-1.76.195-2.98.837-6.164 1.453-8.11 3.32v58.955zM14.91 22.477h17.199c3.2 0 6.075-.755 6.058 2.636-.477.532-.609 1.205-1.368 1.464-1.212.413-3.9.098-5.374.098H19.503c-3.282 0-6.186.76-6.157-2.733.328-.347.475-.906.88-1.172.233-.153.492-.12.684-.293zm50.033 0h17.2c1.934 0 5.145-.47 5.667.977 1.131 1.148-.162 3.124-1.563 3.123-.6.378-4.083.098-5.082.098H68.07c-2.019 0-4.299.253-4.495-1.562-.93-1.16.865-2.2 1.368-2.636zM14.91 34.972h17.199c3.206 0 6.075-.763 6.058 2.635-.48.536-.609 1.196-1.368 1.464-1.181.417-3.921.098-5.374.098H19.503c-3.277 0-6.186.753-6.157-2.734.3-.316.423-.816.782-1.073.244-.175.568-.195.782-.39zm50.131 0h17.2c2.974 0 5.943-.596 5.96 2.44-.48.63-.576 1.345-1.368 1.66-1.03.407-3.767.097-5.081.097H69.829c-2.346 0-6.023.576-6.254-1.562-.339-.419-.085-.938 0-1.464.23-.179.277-.505.489-.683.272-.229.697-.267.977-.488zM14.91 47.465h21.693c.826.258 1.042.919 1.564 1.465.013 1.421-.362 2.281-1.368 2.635-1.24.437-4.144.098-5.668.098H19.796c-1.395 0-3.943.296-5.082-.098-.696-.241-.913-.888-1.368-1.366-.043-2.11.532-1.823 1.564-2.734zm50.131 0h17.2c2.979 0 5.943-.6 5.96 2.44-.472.62-.568 1.376-1.368 1.66-1.156.41-3.851.098-5.277.098H69.83c-2.346 0-6.023.576-6.254-1.562-.339-.419-.085-.937 0-1.464.214-.164.209-.402.391-.586.276-.278.768-.337 1.075-.586z"/><path fill="#a4c58c" d="M25.17.71c4.993-.079 10.175.047 14.268 1.074 2.034.51 3.822.538 5.668 1.171 1.349.464 2.79 1.08 4.006 1.758.583.324 1.029 1.01 1.76 1.171.34-.482.866-.65 1.367-.976 1.765-1.15 4-1.86 6.255-2.538.857-.258 1.548-.159 2.443-.39 1.802-.467 4.118-.531 6.059-.976h1.563c1.227-.266 2.88.11 4.3-.196.895-.192 2.623-.199 3.518 0 1.415.316 3.075-.078 4.3.196h1.563c1.007.23 2.207.125 3.323.39 2.571.61 5.278.924 7.524 1.757 2.68.994 5.384 2.012 6.84 4.197.851 1.276.685 3.521.685 5.662V54.395c0 5.693.137 11.65-.098 17.18-.557.444-.832 1.062-1.661 1.269-.62.154-1.335-.27-1.76-.39-1.17-.332-2.479-.327-3.615-.586-1.268-.29-2.635-.134-3.81-.391H88.2c-.852-.185-2 .027-3.03-.194-1.871-.405-4.363-.292-6.449-.294-2.19-.001-4.814-.435-6.84 0-.855.184-2.004-.06-2.737.098h-2.54c-1.134.243-2.721.152-3.812.39l-3.42.196c-1.987.446-4.186.313-6.254.78-.749.17-2.006.613-2.932.39-2.505-.6-5.533-.59-8.11-1.17-1.384-.312-2.911-.11-4.203-.39l-4.202-.196H32.11c-1.295-.277-3.768-.32-5.082-.098-.702.12-1.907-.157-2.638 0l-6.743.098c-.997.214-2.263-.055-3.42.196-2.644.57-5.727.373-8.21.975-1.764.428-3.943 1.017-4.885-.39-.616-.92-.293-3.358-.293-4.783V54.884 8.812c.33-.292.348-.883.586-1.268.335-.543.96-1.28 1.466-1.66 2.88-2.165 6.453-3.054 10.554-4.1 2.683-.684 5.696-.368 8.502-.976.926-.2 2.509.354 3.224-.097zm-1.66 4.198c-.392.23-1.128-.02-1.662.098-1.185.26-2.454.002-3.714.292-4.83 1.113-10.09 1.217-13.094 4.1v54.368c0 .828-.183 3.987 0 4.295.105.073.092.059.293.098.704-.461 1.89-.182 2.834-.391 1.544-.342 3.504-.243 5.081-.586h1.857c1.092-.234 2.537.077 3.811-.195 1.987-.423 4.573-.195 6.84-.195 8.297 0 15.615.676 22.77 1.562.416-1.267.098-4.03.098-5.564V50.492 9.593c-.079-.115-.076-.164-.098-.39-6.054-3.858-15.077-4.22-25.017-4.295zm29.316 63.446c1.798-.114 3.947-.391 5.668-.781 1.352-.307 2.851-.115 4.104-.39h1.661c1.472-.318 3.462-.063 4.984-.391h7.72c6.894 0 13.407.608 19.447 1.367V9.3c-.363-.233-.607-.671-.977-.878-1.018-.567-2.05-.737-3.225-1.172-4.677-1.73-10.68-2.34-17.004-2.342-4.448 0-8.88.032-12.508.976-.665.173-1.098.01-1.76.195-2.98.837-6.164 1.453-8.11 3.32v58.955zM14.91 22.477h17.199c3.2 0 6.075-.755 6.058 2.636-.477.532-.609 1.205-1.368 1.464-1.212.413-3.9.098-5.374.098H19.503c-3.282 0-6.186.76-6.157-2.733.328-.347.475-.906.88-1.172.233-.153.492-.12.684-.293zm50.033 0h17.2c1.934 0 5.145-.47 5.667.977 1.131 1.148-.162 3.124-1.563 3.123-.6.378-4.083.098-5.082.098H68.07c-2.019 0-4.299.253-4.495-1.562-.93-1.16.865-2.2 1.368-2.636zM14.91 34.972h17.199c3.206 0 6.075-.763 6.058 2.635-.48.536-.609 1.196-1.368 1.464-1.181.417-3.921.098-5.374.098H19.503c-3.277 0-6.186.753-6.157-2.734.3-.316.423-.816.782-1.073.244-.175.568-.195.782-.39zm50.131 0h17.2c2.974 0 5.943-.596 5.96 2.44-.48.63-.576 1.345-1.368 1.66-1.03.407-3.767.097-5.081.097H69.829c-2.346 0-6.023.576-6.254-1.562-.339-.419-.085-.938 0-1.464.23-.179.277-.505.489-.683.272-.229.697-.267.977-.488zM14.91 47.465h21.693c.826.258 1.042.919 1.564 1.465.013 1.421-.362 2.281-1.368 2.635-1.24.437-4.144.098-5.668.098H19.796c-1.395 0-3.943.296-5.082-.098-.696-.241-.913-.888-1.368-1.366-.043-2.11.532-1.823 1.564-2.734zm50.131 0h17.2c2.979 0 5.943-.6 5.96 2.44-.472.62-.568 1.376-1.368 1.66-1.156.41-3.851.098-5.277.098H69.83c-2.346 0-6.023.576-6.254-1.562-.339-.419-.085-.937 0-1.464.214-.164.209-.402.391-.586.276-.278.768-.337 1.075-.586z"/></g></g></svg>