<svg xmlns="http://www.w3.org/2000/svg" width="86" height="72" viewBox="0 0 86 72"><g><g><path fill="#737373" d="M42.512.062c1.388-.03 2.036.608 2.93 1.075 1.504.785 3.028 1.482 4.491 2.245 4.016 2.096 8.09 3.868 12.11 5.957 1.53.795 3.117 1.528 4.687 2.344.47.244 1.063.72 1.563.88h15.82c.238.277.567.363.781.683.491.623.293 2.244.293 3.32v51.465c0 1.48.207 3.013-.683 3.613-.81.638-3.352.293-4.688.293H5.793c-1.611 0-4.173.348-4.785-.683-.531-.894-.196-3.222-.196-4.493V55.434 13.637c.362-.373.702-.713 1.075-1.075h15.82c.368-.12.825-.503 1.172-.684 1.118-.582 2.243-1.099 3.32-1.66 3.312-1.725 6.69-3.276 9.961-4.98 2.409-1.255 4.859-2.38 7.227-3.613.972-.507 2.36-.823 3.125-1.563zm.293 3.32c-.711.826-2.94 1.497-4.004 2.051-3.149 1.638-6.424 3.242-9.57 4.883-.746.389-4.12 1.766-4.395 2.246h36.328v-.195c-1.188-.158-3.51-1.683-4.59-2.246-3.241-1.692-6.522-3.099-9.765-4.785-1.053-.548-2.781-1.793-4.004-1.954zM3.937 15.687v53.125h78.125V15.687H3.937zm56.641 9.375c6.035-.072 9.016 2.42 11.035 6.348.816 1.586 1.546 4.52.88 6.934-.363 1.309-.878 2.666-1.563 3.71-.337.513-1.13 1.012-1.368 1.563v17.871c-.361.373-.702.712-1.074 1.074-.551-.002-1.004.013-1.367-.195l-.977-1.074-2.93-2.832c-.471-.472-.844-1.261-1.66-1.367l-5.175 5.273c-.364.207-.816.195-1.367.195-.157-.187-.17-.053-.391-.195-.296-.19-.439-.628-.684-.879V43.617c-2.146-1.512-4.073-6.97-2.734-10.742.86-2.423 2.285-4.49 4.2-5.86.9-.645 2.118-1.172 3.222-1.562.594-.21 1.461-.067 1.953-.391zm-46.191 3.125h29.101c.232.252.71.384.879.684.45.798.076 1.784-.488 2.148-.81.644-5.311.293-6.836.293H19.074c-2.703 0-5.769.838-5.762-2.05.173-.144.15-.32.293-.489.209-.247.575-.338.782-.586zm46.386 0l-2.148.586c-1.91.94-3.515 2.533-4.297 4.59-1.344 3.536.464 6.535 2.148 8.3l.489.685c.434.262 1.356.55 2.05.878.777.367 2.358.918 3.711.586 2.912-.713 4.82-1.928 6.055-4.296 2.664-5.112-1.172-9.913-5.078-11.133-.839-.263-1.873-.207-2.93-.196zm-46.386 6.25h19.726c1.121.373 1.43 2.138.39 2.832-.71.57-3.869.293-5.175.293H17.805c-2.42 0-4.505.478-4.493-2.05a51.97 51.97 0 0 1 1.075-1.075zm0 6.25h19.726c.157.187.17.053.39.195.297.191.44.629.684.88.033.908-.156 1.419-.683 1.757-.71.57-3.87.293-5.176.293H17.805c-2.42 0-4.505.478-4.493-2.05.246-.251.388-.688.684-.88.22-.142.234-.008.39-.195zm42.675 5.274v11.133h.196c.674-1.04 1.863-1.864 2.734-2.735.372-.372.747-.974 1.27-1.172h.976c.923.904 1.92 1.724 2.832 2.637.414.415.77 1.055 1.367 1.27V45.96c-1.634.255-3.494 1.525-5.859.976-1.1-.255-2.569-.871-3.516-.976zm-38.867 9.765c-.724-.013-1.421-.515-1.758-.39-.242.283-.353.79-.683.976-1.196.676-1.904-.299-2.442-.878-.095-2.934 1.103-5.145 2.344-6.837.959-1.306 2.438-.437 2.93.684.675-.214 1.108-.277 1.855-.098.19.286.573.539.684.88v4.687h.195v-.196c.507-.697.343-1.57 1.074-2.05.288-.24.63-.296 1.172-.294.496.444.858.513 1.172 1.172l1.465-.976c.46-.202.992-.22 1.465-.39.238-.642.508-1.145 1.367-1.173.169-.102.582-.052.781.098.508.16.86.607.88 1.27.486 1.035-1.23 2.915-2.052 3.124-.544.14-.884-.255-1.367 0-.677.359-1.228 1.192-1.953 1.563-.539.276-1.335.164-1.855.488-.863.927-.969 2.075-2.832 2.051-.144-.17-.318-.15-.489-.293-.917-.765-1.755-1.955-1.953-3.418z"/><path fill="#a4c58c" d="M42.512.062c1.388-.03 2.036.608 2.93 1.075 1.504.785 3.028 1.482 4.491 2.245 4.016 2.096 8.09 3.868 12.11 5.957 1.53.795 3.117 1.528 4.687 2.344.47.244 1.063.72 1.563.88h15.82c.238.277.567.363.781.683.491.623.293 2.244.293 3.32v51.465c0 1.48.207 3.013-.683 3.613-.81.638-3.352.293-4.688.293H5.793c-1.611 0-4.173.348-4.785-.683-.531-.894-.196-3.222-.196-4.493V55.434 13.637c.362-.373.702-.713 1.075-1.075h15.82c.368-.12.825-.503 1.172-.684 1.118-.582 2.243-1.099 3.32-1.66 3.312-1.725 6.69-3.276 9.961-4.98 2.409-1.255 4.859-2.38 7.227-3.613.972-.507 2.36-.823 3.125-1.563zm.293 3.32c-.711.826-2.94 1.497-4.004 2.051-3.149 1.638-6.424 3.242-9.57 4.883-.746.389-4.12 1.766-4.395 2.246h36.328v-.195c-1.188-.158-3.51-1.683-4.59-2.246-3.241-1.692-6.522-3.099-9.765-4.785-1.053-.548-2.781-1.793-4.004-1.954zM3.937 15.687v53.125h78.125V15.687H3.937zm56.641 9.375c6.035-.072 9.016 2.42 11.035 6.348.816 1.586 1.546 4.52.88 6.934-.363 1.309-.878 2.666-1.563 3.71-.337.513-1.13 1.012-1.368 1.563v17.871c-.361.373-.702.712-1.074 1.074-.551-.002-1.004.013-1.367-.195l-.977-1.074-2.93-2.832c-.471-.472-.844-1.261-1.66-1.367l-5.175 5.273c-.364.207-.816.195-1.367.195-.157-.187-.17-.053-.391-.195-.296-.19-.439-.628-.684-.879V43.617c-2.146-1.512-4.073-6.97-2.734-10.742.86-2.423 2.285-4.49 4.2-5.86.9-.645 2.118-1.172 3.222-1.562.594-.21 1.461-.067 1.953-.391zm-46.191 3.125h29.101c.232.252.71.384.879.684.45.798.076 1.784-.488 2.148-.81.644-5.311.293-6.836.293H19.074c-2.703 0-5.769.838-5.762-2.05.173-.144.15-.32.293-.489.209-.247.575-.338.782-.586zm46.386 0l-2.148.586c-1.91.94-3.515 2.533-4.297 4.59-1.344 3.536.464 6.535 2.148 8.3l.489.685c.434.262 1.356.55 2.05.878.777.367 2.358.918 3.711.586 2.912-.713 4.82-1.928 6.055-4.296 2.664-5.112-1.172-9.913-5.078-11.133-.839-.263-1.873-.207-2.93-.196zm-46.386 6.25h19.726c1.121.373 1.43 2.138.39 2.832-.71.57-3.869.293-5.175.293H17.805c-2.42 0-4.505.478-4.493-2.05a51.97 51.97 0 0 1 1.075-1.075zm0 6.25h19.726c.157.187.17.053.39.195.297.191.44.629.684.88.033.908-.156 1.419-.683 1.757-.71.57-3.87.293-5.176.293H17.805c-2.42 0-4.505.478-4.493-2.05.246-.251.388-.688.684-.88.22-.142.234-.008.39-.195zm42.675 5.274v11.133h.196c.674-1.04 1.863-1.864 2.734-2.735.372-.372.747-.974 1.27-1.172h.976c.923.904 1.92 1.724 2.832 2.637.414.415.77 1.055 1.367 1.27V45.96c-1.634.255-3.494 1.525-5.859.976-1.1-.255-2.569-.871-3.516-.976zm-38.867 9.765c-.724-.013-1.421-.515-1.758-.39-.242.283-.353.79-.683.976-1.196.676-1.904-.299-2.442-.878-.095-2.934 1.103-5.145 2.344-6.837.959-1.306 2.438-.437 2.93.684.675-.214 1.108-.277 1.855-.098.19.286.573.539.684.88v4.687h.195v-.196c.507-.697.343-1.57 1.074-2.05.288-.24.63-.296 1.172-.294.496.444.858.513 1.172 1.172l1.465-.976c.46-.202.992-.22 1.465-.39.238-.642.508-1.145 1.367-1.173.169-.102.582-.052.781.098.508.16.86.607.88 1.27.486 1.035-1.23 2.915-2.052 3.124-.544.14-.884-.255-1.367 0-.677.359-1.228 1.192-1.953 1.563-.539.276-1.335.164-1.855.488-.863.927-.969 2.075-2.832 2.051-.144-.17-.318-.15-.489-.293-.917-.765-1.755-1.955-1.953-3.418z"/></g></g></svg>