<svg xmlns="http://www.w3.org/2000/svg" width="88" height="88" viewBox="0 0 88 88"><g><g><path fill="#737373" d="M57.574.25h.977c.156.187.17.053.39.195.296.191.439.628.684.879.103 5.795-1.508 9.562-3.906 12.793-.501.674-.997 1.454-1.66 1.953-.889.668-1.774 1.372-2.735 1.953-.418.253-.998.296-1.27.683-.247.354-.287.787-.488 1.172-.723 1.393-1.315 2.812-2.05 4.297-1.546 3.123-3.224 6.584-4.297 10.059h.195c.71-1.053 1.917-1.971 2.93-2.734.71-.536 1.33-1.323 2.05-1.856 1.842-1.364 3.692-2.565 5.665-3.809 1.298-.818 2.465-2.125 4.492-2.148.486.591.997.686 1.074 1.758-.595.814-.71 1.899-1.172 2.832-1.266 2.556-2.27 5.416-3.418 8.106h.293c.38-.773 2.1-1.803 2.832-2.344 2.168-1.605 4.084-3.668 6.25-5.273.722-.537 2.839-1.853 3.125-2.637.164-.435-.305-1.857-.098-2.735.384-1.623.79-3.064 1.563-4.297 1.363-2.172 3.642-3.759 6.348-4.59 3.825-1.174 8.426 1.405 9.863 3.32.806 1.076 1.679 2.338 2.148 3.712 2.201 6.443-3.14 11.616-7.617 12.89-1.761.502-3.577-.137-5.176-.195-.681.863-2.485 1.6-2.93 2.54 1.624 0 3.459.586 4.883.976 3.827 1.047 9.019 1.857 10.84 4.785.588.945.39 2.882.39 4.394 0 5.008.444 7.116-3.124 8.79.088 4.305-1.241 8.16-2.54 11.23-3.922 9.276-11.03 18.057-21.386 20.8H27.301c-1.28-.38-2.718-.781-3.907-1.366C14.982 82.242 8.75 74.886 5.328 65.777c-.822-2.19-1.185-4.59-1.758-7.031l-.195-3.028-.781-.39c-.695-.487-1.505-1.224-1.954-1.953-.792-1.288-.39-5.474-.39-7.52v-2.539c.422-1.382 1.608-2.123 2.734-2.832 3.459-2.178 8.061-2.79 12.696-3.906 1.665-.401 3.359-.3 4.98-.683.618-.147 1.568.086 1.856-.391-.917-1.016-1.233-2.72-1.758-4.102-1.171-3.078-1.784-6.5-2.735-9.961l-.195-1.855c-.49-2.03-.918-3.746 1.855-3.712.53.447 1.409.336 2.149.587 1.79.605 3.654 1.298 5.273 2.148 6.161 3.236 10.362 8.12 11.914 16.015h.684c2.662-4.74.42-11.745-1.27-15.624-6.657-.197-11.288-3.641-14.062-7.813-.88-1.324-2.246-2.996-2.246-5.078.275-.309.325-.641.684-.879.472-.38 1.476-.311 2.343-.293 1.771.037 3.635.375 5.078.781 4.78 1.346 8.407 3.196 10.059 7.618.31.828.385 1.864.586 2.734v1.074c.525 1.318 1.423 2.76 1.953 4.2.249.674.526 3.133.977 3.418.079-.517.394-.89.586-1.27.413-.823.552-1.629.976-2.442.528-1.01 1.341-2.188 1.758-3.222v-2.246c.466-2.036.497-4.075 1.172-5.86 1.184-3.131 3.213-5.924 5.762-7.714.598-.421 1.393-.885 2.05-1.172.514-.225 1.084-.243 1.465-.586zM56.11 4.352c-.562.834-1.733 1.238-2.343 2.05-1.608 2.137-3.28 4.762-3.32 8.399h.195c.614-.805 1.727-1.232 2.343-2.051 1.584-2.106 3.272-4.853 3.32-8.398h-.195zM37.555 15.777c-.154-4.88-6.424-7.08-11.23-7.617v.097h-.099v.196c.312.25.352.646.586.976.47.663 1.061 1.289 1.563 1.953 1.456 1.93 5.898 4.24 9.18 4.395zm36.914 2.246c.164 1.01.9 1.886 1.367 2.637 1.47 2.368 2.875 4.038 5.176 5.566.492.327 2.48 1.77 2.93 1.368.911-1.122.803-3.96.292-5.372-.973-2.689-2.254-3.831-5.176-4.59-.529-.137-1.734-.394-2.539-.195-.664.164-1.368.476-2.05.586zm-53.516 1.563c.031 1.892.864 4.713 1.367 6.348 1.6 5.196 2.996 10.082 6.64 13.183.61.518 1.152 1.357 1.856 1.758.427.243.93.165 1.367.39.533.275.913.796 1.563.977v-.195c-.672-.85-.935-2.057-1.465-3.028-1.203-2.205-2.647-4.417-4.101-6.445-.87-1.213-2.927-2.822-2.93-4.688.606-.653.704-1.097 2.05-1.074 2.59 2.602 4.753 5.797 6.739 8.984.434.697 1.65 3.627 2.148 3.907v-2.93c-.266-.437-.048-1.072-.195-1.66-.395-1.585-.691-3.315-1.367-4.687-2.075-4.213-5.137-6.92-9.277-9.083-1.214-.634-2.755-1.667-4.395-1.757zm60.645 10.546c-1.006-.184-1.821-.96-2.54-1.465-1.915-1.343-3.627-2.894-4.98-4.785-.465-.649-1.717-3.452-2.344-3.613-.289 1.027-.878 1.946-1.172 3.223-.182.796.054 1.91.196 2.442.774 2.9 1.892 4.213 4.59 5.175.71.253 2.082.659 3.222.391 1.143-.269 2.06-.797 3.028-1.074v-.294zm-27.247-.878c-.966.982-2.385 1.63-3.515 2.441-2.79 2-5.637 4.886-7.617 7.715-1.13 1.614-2.3 3.346-2.344 6.055h.098v.097c7.622-1.456 8.775-4.843 11.425-11.133.693-1.642 1.683-3.422 2.149-5.175h-.196zM42.437 50.249c1.723.022 3.93.237 5.47-.097.684-.148 1.61.192 2.148-.098.275-.148.526-.592.78-.78 1.184-.879 2.26-1.875 3.419-2.735 3.4-2.524 6.554-5.291 9.96-7.813.402-.297 1.492-1.086 1.759-1.465.215-.306.27-.689.585-.878.344-.208.759-.172 1.075-.391.869-.604 1.592-1.515 2.441-2.149.49-.364 1.337-.765 1.563-1.367-.984-.34-2.385-2.184-2.832-3.125-1.492.871-2.64 2.309-4.004 3.32-4.109 3.05-7.82 6.513-11.914 9.57-1.663 1.242-3.016 2.994-4.786 4.103-1.79 1.121-3.702 1.43-5.859 2.245.166.462.2.997.195 1.66zM23.2 38.726c-.466.275-1.13.048-1.758.196-1.341.314-2.853.232-4.297.586-3.342.818-6.83 1.26-9.765 2.343-1.18.436-3.521.85-3.906 1.953-.407.75 2.812 2.473 4.003 2.149 2.355-.64 5.133-.962 7.715-1.563h.977c1.738-.401 3.918-.378 5.664-.78h1.074c1.158-.267 2.685-.32 3.809-.587.672-.16 1.19.122 1.562-.293-1.278-.759-3.042-2.717-3.808-4.004h-1.27zm45.117.684c-.57.57-1.298.98-1.953 1.465-.61.451-1.148 1.11-1.758 1.562-.408.303-.945.498-1.171.977h1.074c.824.504 3.783.297 4.98.586 2.203.53 4.62.544 6.836 1.172 1.189.336 2.642.813 3.809 1.074 1.087.242 4.395-1.518 4.492-2.442l-.684-.781c-1.437-.88-3.095-.986-4.883-1.563-3.21-1.035-7.078-1.589-10.742-2.05zm-8.398 6.738c-.556.526-1.234.908-1.856 1.368-.442.327-.827.843-1.27 1.171-.466.347-1.207.631-1.464 1.172h2.05c.816-.488 3.963-.121 5.177-.39 1.167-.26 2.527-.097 3.808-.39 2.23-.513 4.716-.629 6.934-1.075v-.098l-.293-.098c-.776-.47-2.287-.243-3.32-.488-2.233-.53-4.986-.462-7.325-.976-.87-.192-1.728.047-2.441-.196zm-37.793.586c-.46.286-1.117.05-1.758.195-1.833.418-4.347.759-6.348.782v.195l6.543.976c.545-.808 1.978-1.4 2.344-2.148h-.781zm8.691.586c-.328.209-.7.073-1.172.196-1.084.282-2.304.536-3.32.976-2.311 1.002-4.178 2.664-5.176 4.98-.305.71-.197 1.321-.39 2.149-.174.744-.44 2.392-.196 3.418.196.822.362 1.98.586 2.734.429 1.444.662 2.694 1.172 3.906.204.486.132 1.036.586 1.27.459-1.455 1.72-2.733 2.54-3.906 2.396-3.437 4.813-6.85 8.202-9.278a13.674 13.674 0 0 1 2.93-1.562c.695-.26 1.294-.302 1.855-.684l.88-1.074c.054-1.138-.274-2.773-1.27-2.832-.819.645-2.792 1.127-3.809 1.66-2.326 1.22-4.77 2.995-6.25 5.078-1.001 1.41-.841 3.693-3.222 3.711-.6-.682-1.094-.648-1.075-2.05.491-.558.585-1.505.977-2.149.49-.803 1.093-1.588 1.66-2.344.575-.765 2.234-2.263 3.027-2.832.58-.415 1.63-.721 1.954-1.367h-.489zm-27.441.586c-.01 1.382-.14 3.082.098 4.297 2.044 1.154 4.193 1.884 6.64 2.734 1.186.412 2.494.46 3.613.781.456.132 3.594.506 3.614.488.355-.424.115-.998.293-1.66.244-.91.662-1.839.879-2.734h-.098v-.098c-1.418-.026-2.886-.365-4.102-.683l-1.66-.195c-2.034-.552-4.221-.845-6.152-1.563-1.027-.381-2.066-1.153-3.125-1.367zm81.055 0c-.37.338-.773.339-1.27.586-1.98.983-4.494 1.47-6.836 2.148-.595.173-.944.033-1.562.196-1.991.523-4.46.668-6.543 1.172l-2.832.195c-1.45.338-3.407.248-4.883.586h-1.856c-.856.19-2.135.091-3.027.293h-1.855c-.794.175-2.016-.105-2.93.097-2.641.584-7.024.193-10.059.195-.899 1.12-2.231 1.273-3.613 1.954-.737.363-1.414.907-2.05 1.367-.46.33-1.16.606-1.368 1.172h2.734c.655.408 2.077-.083 2.93.098.876.185 2.183.097 3.223.097h5.761c.854-.01 2.219-.017 3.028-.195 1.583-.35 3.378.115 4.785-.195.996-.22 2.104-.012 2.93-.196h1.66c1.469-.33 3.354-.255 4.785-.586 1.406-.325 2.73-.056 4.101-.39 2.495-.607 5.3-.863 7.618-1.563.496-.15.774-.043 1.27-.195 1.543-.474 3.16-1.092 4.491-1.758.589-.294 1.232-.342 1.465-.976.314-.496.109-3.273.098-4.102h-.195zm-77.735 9.18c-.345 1.073.297 3.151.586 4.101.417 1.372.495 2.542.977 3.809.737 1.937 1.792 3.773 2.734 5.468 3.594 6.468 8.998 11.83 16.7 14.16l18.261.001h14.355c8.49-2.589 14.06-8.72 17.774-16.114 1.612-3.207 2.99-6.833 3.32-11.328h-.097v-.097c-2.662 1.116-5.972 1.407-8.985 2.148-1.2.295-2.2.104-3.418.39-2.492.587-5.512.392-8.105.977h-1.563c-1.404.31-3.305.255-4.785.39H51.91c-1.729.38-4.456.196-6.445.196l-9.278-.097c-.762-.169-1.948.097-2.832-.098-.75-.166-1.633-.194-2.539-.195-.55.96-1.423 1.746-2.05 2.637-.942 1.335-1.665 2.696-2.54 4.101-.33.532-.866 1.108-1.171 1.66-.72 1.298-.863 2.95-2.93 2.93-1.947-1.971-2.949-5.73-3.906-8.691-.283-.875-.293-3.3-.684-3.907v-.098c-2.017-.005-4.612-.675-6.348-1.171-1.597-.457-3.124-.539-4.492-1.172zm63.38 5.664h.976c.156.187.17.052.39.195.296.19.439.629.684.879.035 1.956-.95 4.11-1.563 5.566-2.054 4.88-4.112 8.605-8.691 10.938-1.216.62-3.96 1.67-6.152 1.172-2.15-.488-4.11-.876-5.86-1.758-.592-.299-1.234-.969-1.855-1.172h-2.149c-2.79-.623-8.145-.586-8.105-3.809.606-.653.704-1.096 2.05-1.074.98 1.142 5.993 2.095 8.301 1.66.536-1.437 2.97-2.925 4.2-3.808 3.78-2.715 8.206-4.792 12.695-6.836 1.33-.606 2.73-1.011 4.004-1.563.44-.19.767-.107 1.074-.39zm-2.052 4.101c-.846.72-2.291.854-3.32 1.367-2.821 1.41-5.734 2.698-8.3 4.297-1.033.643-2.543 1.17-3.223 2.149h.488c.41-.307.994-.22 1.562-.39 1.197-.361 2.147-.875 3.614-.782.208.276.531.625.78.879.032.7-.038.962-.194 1.562-1.5.91-3.635 1.395-5.567 1.855v.196c.723.033 1.427.225 2.05.39 1.182.314 2.84-.12 3.614-.39 3.56-1.24 5.226-3.386 6.836-6.543.506-.992 1.007-2.16 1.465-3.223.126-.292.388-1.156.293-1.27v-.097h-.098z"/><path fill="#a4c58c" d="M57.574.25h.977c.156.187.17.053.39.195.296.191.439.628.684.879.103 5.795-1.508 9.562-3.906 12.793-.501.674-.997 1.454-1.66 1.953-.889.668-1.774 1.372-2.735 1.953-.418.253-.998.296-1.27.683-.247.354-.287.787-.488 1.172-.723 1.393-1.315 2.812-2.05 4.297-1.546 3.123-3.224 6.584-4.297 10.059h.195c.71-1.053 1.917-1.971 2.93-2.734.71-.536 1.33-1.323 2.05-1.856 1.842-1.364 3.692-2.565 5.665-3.809 1.298-.818 2.465-2.125 4.492-2.148.486.591.997.686 1.074 1.758-.595.814-.71 1.899-1.172 2.832-1.266 2.556-2.27 5.416-3.418 8.106h.293c.38-.773 2.1-1.803 2.832-2.344 2.168-1.605 4.084-3.668 6.25-5.273.722-.537 2.839-1.853 3.125-2.637.164-.435-.305-1.857-.098-2.735.384-1.623.79-3.064 1.563-4.297 1.363-2.172 3.642-3.759 6.348-4.59 3.825-1.174 8.426 1.405 9.863 3.32.806 1.076 1.679 2.338 2.148 3.712 2.201 6.443-3.14 11.616-7.617 12.89-1.761.502-3.577-.137-5.176-.195-.681.863-2.485 1.6-2.93 2.54 1.624 0 3.459.586 4.883.976 3.827 1.047 9.019 1.857 10.84 4.785.588.945.39 2.882.39 4.394 0 5.008.444 7.116-3.124 8.79.088 4.305-1.241 8.16-2.54 11.23-3.922 9.276-11.03 18.057-21.386 20.8H27.301c-1.28-.38-2.718-.781-3.907-1.366C14.982 82.242 8.75 74.886 5.328 65.777c-.822-2.19-1.185-4.59-1.758-7.031l-.195-3.028-.781-.39c-.695-.487-1.505-1.224-1.954-1.953-.792-1.288-.39-5.474-.39-7.52v-2.539c.422-1.382 1.608-2.123 2.734-2.832 3.459-2.178 8.061-2.79 12.696-3.906 1.665-.401 3.359-.3 4.98-.683.618-.147 1.568.086 1.856-.391-.917-1.016-1.233-2.72-1.758-4.102-1.171-3.078-1.784-6.5-2.735-9.961l-.195-1.855c-.49-2.03-.918-3.746 1.855-3.712.53.447 1.409.336 2.149.587 1.79.605 3.654 1.298 5.273 2.148 6.161 3.236 10.362 8.12 11.914 16.015h.684c2.662-4.74.42-11.745-1.27-15.624-6.657-.197-11.288-3.641-14.062-7.813-.88-1.324-2.246-2.996-2.246-5.078.275-.309.325-.641.684-.879.472-.38 1.476-.311 2.343-.293 1.771.037 3.635.375 5.078.781 4.78 1.346 8.407 3.196 10.059 7.618.31.828.385 1.864.586 2.734v1.074c.525 1.318 1.423 2.76 1.953 4.2.249.674.526 3.133.977 3.418.079-.517.394-.89.586-1.27.413-.823.552-1.629.976-2.442.528-1.01 1.341-2.188 1.758-3.222v-2.246c.466-2.036.497-4.075 1.172-5.86 1.184-3.131 3.213-5.924 5.762-7.714.598-.421 1.393-.885 2.05-1.172.514-.225 1.084-.243 1.465-.586zM56.11 4.352c-.562.834-1.733 1.238-2.343 2.05-1.608 2.137-3.28 4.762-3.32 8.399h.195c.614-.805 1.727-1.232 2.343-2.051 1.584-2.106 3.272-4.853 3.32-8.398h-.195zM37.555 15.777c-.154-4.88-6.424-7.08-11.23-7.617v.097h-.099v.196c.312.25.352.646.586.976.47.663 1.061 1.289 1.563 1.953 1.456 1.93 5.898 4.24 9.18 4.395zm36.914 2.246c.164 1.01.9 1.886 1.367 2.637 1.47 2.368 2.875 4.038 5.176 5.566.492.327 2.48 1.77 2.93 1.368.911-1.122.803-3.96.292-5.372-.973-2.689-2.254-3.831-5.176-4.59-.529-.137-1.734-.394-2.539-.195-.664.164-1.368.476-2.05.586zm-53.516 1.563c.031 1.892.864 4.713 1.367 6.348 1.6 5.196 2.996 10.082 6.64 13.183.61.518 1.152 1.357 1.856 1.758.427.243.93.165 1.367.39.533.275.913.796 1.563.977v-.195c-.672-.85-.935-2.057-1.465-3.028-1.203-2.205-2.647-4.417-4.101-6.445-.87-1.213-2.927-2.822-2.93-4.688.606-.653.704-1.097 2.05-1.074 2.59 2.602 4.753 5.797 6.739 8.984.434.697 1.65 3.627 2.148 3.907v-2.93c-.266-.437-.048-1.072-.195-1.66-.395-1.585-.691-3.315-1.367-4.687-2.075-4.213-5.137-6.92-9.277-9.083-1.214-.634-2.755-1.667-4.395-1.757zm60.645 10.546c-1.006-.184-1.821-.96-2.54-1.465-1.915-1.343-3.627-2.894-4.98-4.785-.465-.649-1.717-3.452-2.344-3.613-.289 1.027-.878 1.946-1.172 3.223-.182.796.054 1.91.196 2.442.774 2.9 1.892 4.213 4.59 5.175.71.253 2.082.659 3.222.391 1.143-.269 2.06-.797 3.028-1.074v-.294zm-27.247-.878c-.966.982-2.385 1.63-3.515 2.441-2.79 2-5.637 4.886-7.617 7.715-1.13 1.614-2.3 3.346-2.344 6.055h.098v.097c7.622-1.456 8.775-4.843 11.425-11.133.693-1.642 1.683-3.422 2.149-5.175h-.196zM42.437 50.249c1.723.022 3.93.237 5.47-.097.684-.148 1.61.192 2.148-.098.275-.148.526-.592.78-.78 1.184-.879 2.26-1.875 3.419-2.735 3.4-2.524 6.554-5.291 9.96-7.813.402-.297 1.492-1.086 1.759-1.465.215-.306.27-.689.585-.878.344-.208.759-.172 1.075-.391.869-.604 1.592-1.515 2.441-2.149.49-.364 1.337-.765 1.563-1.367-.984-.34-2.385-2.184-2.832-3.125-1.492.871-2.64 2.309-4.004 3.32-4.109 3.05-7.82 6.513-11.914 9.57-1.663 1.242-3.016 2.994-4.786 4.103-1.79 1.121-3.702 1.43-5.859 2.245.166.462.2.997.195 1.66zM23.2 38.726c-.466.275-1.13.048-1.758.196-1.341.314-2.853.232-4.297.586-3.342.818-6.83 1.26-9.765 2.343-1.18.436-3.521.85-3.906 1.953-.407.75 2.812 2.473 4.003 2.149 2.355-.64 5.133-.962 7.715-1.563h.977c1.738-.401 3.918-.378 5.664-.78h1.074c1.158-.267 2.685-.32 3.809-.587.672-.16 1.19.122 1.562-.293-1.278-.759-3.042-2.717-3.808-4.004h-1.27zm45.117.684c-.57.57-1.298.98-1.953 1.465-.61.451-1.148 1.11-1.758 1.562-.408.303-.945.498-1.171.977h1.074c.824.504 3.783.297 4.98.586 2.203.53 4.62.544 6.836 1.172 1.189.336 2.642.813 3.809 1.074 1.087.242 4.395-1.518 4.492-2.442l-.684-.781c-1.437-.88-3.095-.986-4.883-1.563-3.21-1.035-7.078-1.589-10.742-2.05zm-8.398 6.738c-.556.526-1.234.908-1.856 1.368-.442.327-.827.843-1.27 1.171-.466.347-1.207.631-1.464 1.172h2.05c.816-.488 3.963-.121 5.177-.39 1.167-.26 2.527-.097 3.808-.39 2.23-.513 4.716-.629 6.934-1.075v-.098l-.293-.098c-.776-.47-2.287-.243-3.32-.488-2.233-.53-4.986-.462-7.325-.976-.87-.192-1.728.047-2.441-.196zm-37.793.586c-.46.286-1.117.05-1.758.195-1.833.418-4.347.759-6.348.782v.195l6.543.976c.545-.808 1.978-1.4 2.344-2.148h-.781zm8.691.586c-.328.209-.7.073-1.172.196-1.084.282-2.304.536-3.32.976-2.311 1.002-4.178 2.664-5.176 4.98-.305.71-.197 1.321-.39 2.149-.174.744-.44 2.392-.196 3.418.196.822.362 1.98.586 2.734.429 1.444.662 2.694 1.172 3.906.204.486.132 1.036.586 1.27.459-1.455 1.72-2.733 2.54-3.906 2.396-3.437 4.813-6.85 8.202-9.278a13.674 13.674 0 0 1 2.93-1.562c.695-.26 1.294-.302 1.855-.684l.88-1.074c.054-1.138-.274-2.773-1.27-2.832-.819.645-2.792 1.127-3.809 1.66-2.326 1.22-4.77 2.995-6.25 5.078-1.001 1.41-.841 3.693-3.222 3.711-.6-.682-1.094-.648-1.075-2.05.491-.558.585-1.505.977-2.149.49-.803 1.093-1.588 1.66-2.344.575-.765 2.234-2.263 3.027-2.832.58-.415 1.63-.721 1.954-1.367h-.489zm-27.441.586c-.01 1.382-.14 3.082.098 4.297 2.044 1.154 4.193 1.884 6.64 2.734 1.186.412 2.494.46 3.613.781.456.132 3.594.506 3.614.488.355-.424.115-.998.293-1.66.244-.91.662-1.839.879-2.734h-.098v-.098c-1.418-.026-2.886-.365-4.102-.683l-1.66-.195c-2.034-.552-4.221-.845-6.152-1.563-1.027-.381-2.066-1.153-3.125-1.367zm81.055 0c-.37.338-.773.339-1.27.586-1.98.983-4.494 1.47-6.836 2.148-.595.173-.944.033-1.562.196-1.991.523-4.46.668-6.543 1.172l-2.832.195c-1.45.338-3.407.248-4.883.586h-1.856c-.856.19-2.135.091-3.027.293h-1.855c-.794.175-2.016-.105-2.93.097-2.641.584-7.024.193-10.059.195-.899 1.12-2.231 1.273-3.613 1.954-.737.363-1.414.907-2.05 1.367-.46.33-1.16.606-1.368 1.172h2.734c.655.408 2.077-.083 2.93.098.876.185 2.183.097 3.223.097h5.761c.854-.01 2.219-.017 3.028-.195 1.583-.35 3.378.115 4.785-.195.996-.22 2.104-.012 2.93-.196h1.66c1.469-.33 3.354-.255 4.785-.586 1.406-.325 2.73-.056 4.101-.39 2.495-.607 5.3-.863 7.618-1.563.496-.15.774-.043 1.27-.195 1.543-.474 3.16-1.092 4.491-1.758.589-.294 1.232-.342 1.465-.976.314-.496.109-3.273.098-4.102h-.195zm-77.735 9.18c-.345 1.073.297 3.151.586 4.101.417 1.372.495 2.542.977 3.809.737 1.937 1.792 3.773 2.734 5.468 3.594 6.468 8.998 11.83 16.7 14.16l18.261.001h14.355c8.49-2.589 14.06-8.72 17.774-16.114 1.612-3.207 2.99-6.833 3.32-11.328h-.097v-.097c-2.662 1.116-5.972 1.407-8.985 2.148-1.2.295-2.2.104-3.418.39-2.492.587-5.512.392-8.105.977h-1.563c-1.404.31-3.305.255-4.785.39H51.91c-1.729.38-4.456.196-6.445.196l-9.278-.097c-.762-.169-1.948.097-2.832-.098-.75-.166-1.633-.194-2.539-.195-.55.96-1.423 1.746-2.05 2.637-.942 1.335-1.665 2.696-2.54 4.101-.33.532-.866 1.108-1.171 1.66-.72 1.298-.863 2.95-2.93 2.93-1.947-1.971-2.949-5.73-3.906-8.691-.283-.875-.293-3.3-.684-3.907v-.098c-2.017-.005-4.612-.675-6.348-1.171-1.597-.457-3.124-.539-4.492-1.172zm63.38 5.664h.976c.156.187.17.052.39.195.296.19.439.629.684.879.035 1.956-.95 4.11-1.563 5.566-2.054 4.88-4.112 8.605-8.691 10.938-1.216.62-3.96 1.67-6.152 1.172-2.15-.488-4.11-.876-5.86-1.758-.592-.299-1.234-.969-1.855-1.172h-2.149c-2.79-.623-8.145-.586-8.105-3.809.606-.653.704-1.096 2.05-1.074.98 1.142 5.993 2.095 8.301 1.66.536-1.437 2.97-2.925 4.2-3.808 3.78-2.715 8.206-4.792 12.695-6.836 1.33-.606 2.73-1.011 4.004-1.563.44-.19.767-.107 1.074-.39zm-2.052 4.101c-.846.72-2.291.854-3.32 1.367-2.821 1.41-5.734 2.698-8.3 4.297-1.033.643-2.543 1.17-3.223 2.149h.488c.41-.307.994-.22 1.562-.39 1.197-.361 2.147-.875 3.614-.782.208.276.531.625.78.879.032.7-.038.962-.194 1.562-1.5.91-3.635 1.395-5.567 1.855v.196c.723.033 1.427.225 2.05.39 1.182.314 2.84-.12 3.614-.39 3.56-1.24 5.226-3.386 6.836-6.543.506-.992 1.007-2.16 1.465-3.223.126-.292.388-1.156.293-1.27v-.097h-.098z"/></g></g></svg>