<svg xmlns="http://www.w3.org/2000/svg" width="16" height="15" viewBox="0 0 16 15"><g><g opacity="1"><path fill="#737373" d="M2.826.22C3.87.21 4.18.736 4.688 1.243l1.588 1.589c.297.297.469.434.602.912.028.098.073.325.037.475-.122.498-.407.735-.712 1.04l-.53.548c-.118.119-.476.386-.51.548.08.085.116.21.182.31.133.2.293.389.438.584.16.215.388.39.548.603.407.539.992 1.089 1.533 1.497.078.058.14.16.219.218.22.164.426.32.657.475.118.078.228.2.402.219.158-.241.435-.436.638-.639.423-.422.767-.948 1.442-1.113.257-.063.55.04.694.109.612.296 1.005.84 1.46 1.296l1.15 1.15c.177.177.424.341.53.584.064.149.107.335.146.492.045.188.011.518-.037.658-.155.451-.686.832-1.004 1.15-.274.274-.508.585-.876.767-.29.143-.65.207-.986.292-.517.13-1.346.087-1.825-.037l-.31-.037c-.331-.095-.691-.156-1.004-.292a15.948 15.948 0 0 1-1.387-.657c-.25-.138-.498-.335-.749-.474-2.15-1.198-4.059-3.194-5.257-5.349-.128-.23-.299-.465-.438-.693-.184-.302-.295-.629-.438-.967C.373 5.273.058 3.369.745 2.046c.16-.308.475-.53.712-.767l.785-.803c.089-.065.212-.14.31-.182.091-.04.206-.016.274-.073zm.11.804c-.064.049-.156.062-.22.11l-.84.857c-.14.141-.352.284-.437.475-.71 1.598.017 3.674.693 4.782a30.96 30.96 0 0 0 1.643 2.446c.093.123.236.224.329.347.164.217.349.438.566.602.066.05.1.15.164.2.269.215.494.49.766.694.32.24.625.502.95.73.615.434 1.275.8 1.953 1.17.868.47 2.384 1.105 3.778.729.218-.059.395-.062.584-.146.25-.112.404-.313.584-.493l.876-.858c.032-.043.038-.09.073-.128.005-.69-.319-.775-.657-1.113-.115-.115-.213-.25-.328-.365-.36-.359-.736-.7-1.095-1.059-.17-.17-.527-.665-.785-.694-.23-.139-.582.272-.676.366l-1.095 1.076c-.105.106-.307.388-.456.42-.103-.074-.28-.054-.402-.109a4.356 4.356 0 0 1-.693-.402c-1.048-.735-2.14-1.753-2.903-2.774-.393-.528-.948-1.008-1.058-1.807.24-.158.47-.47.675-.675.35-.35.714-.684 1.04-1.06h.037c.107-.125.123-.313.11-.51-.054-.043-.068-.109-.11-.164-.12-.163-.345-.345-.493-.493L4.05 1.754c-.303-.304-.51-.73-1.114-.73z"/><path fill="#7eb252" d="M2.826.22C3.87.21 4.18.736 4.688 1.243l1.588 1.589c.297.297.469.434.602.912.028.098.073.325.037.475-.122.498-.407.735-.712 1.04l-.53.548c-.118.119-.476.386-.51.548.08.085.116.21.182.31.133.2.293.389.438.584.16.215.388.39.548.603.407.539.992 1.089 1.533 1.497.078.058.14.16.219.218.22.164.426.32.657.475.118.078.228.2.402.219.158-.241.435-.436.638-.639.423-.422.767-.948 1.442-1.113.257-.063.55.04.694.109.612.296 1.005.84 1.46 1.296l1.15 1.15c.177.177.424.341.53.584.064.149.107.335.146.492.045.188.011.518-.037.658-.155.451-.686.832-1.004 1.15-.274.274-.508.585-.876.767-.29.143-.65.207-.986.292-.517.13-1.346.087-1.825-.037l-.31-.037c-.331-.095-.691-.156-1.004-.292a15.948 15.948 0 0 1-1.387-.657c-.25-.138-.498-.335-.749-.474-2.15-1.198-4.059-3.194-5.257-5.349-.128-.23-.299-.465-.438-.693-.184-.302-.295-.629-.438-.967C.373 5.273.058 3.369.745 2.046c.16-.308.475-.53.712-.767l.785-.803c.089-.065.212-.14.31-.182.091-.04.206-.016.274-.073zm.11.804c-.064.049-.156.062-.22.11l-.84.857c-.14.141-.352.284-.437.475-.71 1.598.017 3.674.693 4.782a30.96 30.96 0 0 0 1.643 2.446c.093.123.236.224.329.347.164.217.349.438.566.602.066.05.1.15.164.2.269.215.494.49.766.694.32.24.625.502.95.73.615.434 1.275.8 1.953 1.17.868.47 2.384 1.105 3.778.729.218-.059.395-.062.584-.146.25-.112.404-.313.584-.493l.876-.858c.032-.043.038-.09.073-.128.005-.69-.319-.775-.657-1.113-.115-.115-.213-.25-.328-.365-.36-.359-.736-.7-1.095-1.059-.17-.17-.527-.665-.785-.694-.23-.139-.582.272-.676.366l-1.095 1.076c-.105.106-.307.388-.456.42-.103-.074-.28-.054-.402-.109a4.356 4.356 0 0 1-.693-.402c-1.048-.735-2.14-1.753-2.903-2.774-.393-.528-.948-1.008-1.058-1.807.24-.158.47-.47.675-.675.35-.35.714-.684 1.04-1.06h.037c.107-.125.123-.313.11-.51-.054-.043-.068-.109-.11-.164-.12-.163-.345-.345-.493-.493L4.05 1.754c-.303-.304-.51-.73-1.114-.73z"/></g></g></svg>